<?xml version="1.0" encoding="UTF-8"?>
<svg width="752pt" height="752pt" version="1.1" viewBox="0 0 752 752" xmlns="http://www.w3.org/2000/svg">
 <g>
  <path d="m546.96 472.61c-3.7891 14.207-8.0508 27.941-11.84 42.148-1.4219 5.2109-3.3164 9.9453-5.2109 15.156-1.8945 5.2109-6.6289 8.5234-11.84 6.1562-2.8398-0.94531-4.7344-5.6836-5.6836-9.4727-2.3672-8.9961 0.47266-18.469-0.47266-26.52-1.8945-13.734 0.94531-21.312 13.262-26.992 3.3164-1.4219 4.7344-6.6289 7.5781-9.4727 2.3672-2.3672 5.2109-4.7344 7.5781-7.1055 1.8945 3.3164 3.7891 6.1562 4.7344 9.4727 0.47266 1.8945 0 4.2617 0 6.1562 0.94531-0.003906 1.4219 0.47266 1.8945 0.47266z"/>
  <path d="m542.23 311.59c-5.6836 1.8945-11.367 4.7344-17.523 6.6289-4.7344 1.4219-10.418 2.8398-13.734 1.4219-2.3672-0.94531-1.8945-8.0508-2.3672-10.418l-3.7891-12.312c-0.94531 0.47266-1.4219 0.94531-2.3672 1.4219-2.3672-1.8945-4.7344-4.2617-6.6289-6.1562-6.1562-7.1055-12.785-13.262-17.996-20.836-2.8398-4.2617-2.3672-9.9453-3.7891-15.156-2.8398-10.418-6.1562-21.312-8.9961-31.73-0.47266-2.3672 0-5.2109 0-8.0508 0.47266 0 0.94531 0.47266 1.4219 0.47266l-7.1055-22.258c-1.8945 0.94531-4.7344 1.4219-8.0508 0.47266-8.9961-2.3672-18.469-2.8398-27.469-3.7891-4.7344-0.47266-9.4727-0.47266-13.734-2.3672-7.1055-2.8398-11.84-1.4219-14.68 5.6836-2.8398 6.6289-7.1055 7.5781-13.734 4.7344-8.0508-3.7891-16.102-7.1055-24.152-11.367-5.207-2.8398-10.418-6.6289-17.047-10.891 8.0508-3.3164 11.84-7.1055 8.5234-13.262-3.3164-5.6836-8.0508-8.0508-15.156-6.6289-6.1562 0.94531-12.312 1.4219-18.469 2.3672-8.5234 1.4219-17.051 1.8945-24.625 4.7344-9.4727 3.3164-17.523 9.9453-28.414 6.6289-0.94531 0-1.8945 0-2.3672 0.47266-9.4727 7.5781-20.836 14.207-21.312 28.414 0 6.1562-3.3164 9.9453-8.5234 11.84-9.4727 3.7891-15.629 9.9453-17.523 20.363-0.94531 4.7344-4.2617 8.9961-5.6836 14.207-0.94531 3.7891-2.3672 8.0508-0.94531 10.891 5.2109 11.84 3.3164 21.785-2.8398 32.676-5.2109 8.9961 0.94531 24.625 10.418 27.941 8.0508 3.3164 12.312 8.9961 16.102 16.574 3.7891 7.5781 8.9961 14.68 14.207 21.312 1.4219 1.8945 7.5781 3.3164 8.0508 2.3672 5.6836-8.0508 14.207-3.7891 21.312-5.2109 5.6836-0.94531 12.312-2.3672 16.574-5.6836 10.891-8.9961 19.418-8.0508 26.047 4.7344 3.3164 6.1562 7.1055 7.5781 13.734 4.7344 2.3672-0.94531 7.1055-0.94531 8.9961 0.94531 1.8945 1.8945 1.8945 6.1562 1.4219 8.9961-0.94531 6.6289-2.8398 12.785-3.7891 18.941-0.47266 2.3672 0.47266 6.1562 2.3672 7.1055 9.4727 5.2109 10.891 14.207 13.262 22.73 2.3672 8.9961 4.2617 18.941 5.6836 28.414 0.47266 4.2617-0.47266 8.5234-1.4219 12.785-1.4219 5.6836-4.7344 11.367-5.6836 17.523-1.8945 16.102 5.2109 29.836 14.207 42.621 4.7344 6.1562 8.0508 11.84 4.2617 20.363-1.4219 2.8398-1.4219 8.5234 0.47266 10.891 8.0508 10.891 11.367 23.207 13.734 35.992 1.4219 8.0508 8.0508 9.9453 15.629 6.1562 6.1562-2.8398 13.262-3.3164 19.891-5.2109 6.1562-1.8945 13.734-3.3164 17.996-7.5781 8.0508-7.5781 14.207-16.574 20.836-25.574 1.4219-2.3672 2.3672-6.6289 1.4219-8.5234-2.8398-6.6289-0.94531-10.418 5.6836-11.84 8.9961-1.8945 10.418-8.0508 7.1055-15.156-3.7891-8.5234-0.94531-15.156 4.7344-20.836 3.7891-4.2617 7.5781-8.0508 12.312-11.367 11.367-8.0508 12.312-33.152 6.6289-44.043-5.2109-9.9453-9.9453-21.312-3.3164-30.309 10.418-14.207 17.523-31.258 34.098-40.254 3.3164-1.8945 5.6836-5.2109 7.5781-8.5234 4.2617-7.1055 8.0508-14.207 11.367-21.785 2.8398-6.6289 4.7344-13.262 6.6289-19.891-0.94531-7.0781-3.3125-9.918-9.4727-7.5508zm-86.664 82.402c-1.4219-1.8945-4.2617-4.2617-3.7891-5.2109 0.94531-2.8398 3.3164-5.2109 5.2109-7.5781 0-0.47266 3.3164 1.8945 5.6836 3.7891-2.8438 3.3203-5.2109 6.1602-7.1055 9z"/>
 </g>
</svg>
