<?xml version="1.0" encoding="UTF-8"?>
<svg width="752pt" height="752pt" version="1.1" viewBox="0 0 752 752" xmlns="http://www.w3.org/2000/svg">
 <path d="m165.26 265.66c-0.47266-1.8945-2.3672-2.8398-2.3672-4.7344 0-1.4219 1.4219-2.8398 0-4.2617l1.4219-0.47266c-2.3672-4.7344-1.8945-10.891 3.7891-11.367 0 1.4219-1.4219 1.4219-1.8945 2.3672-0.47266 0.94531-0.47266 2.3672 0 3.3164 0.47266 2.8398 1.8945 5.2109 4.7344 6.1562-0.94531 0-1.8945 0.47266-2.3672 0.94531 0.47266 0.47266 0.47266 0.94531 0.94531 1.4219-2.3672-0.47266 0 16.102 3.3164 12.312-1.4219 3.7891 2.8398 3.3164 4.2617 3.7891 0-1.8945 0.47266-3.7891 0.94531-5.6836 1.4219 0.94531 1.8945 2.3672 1.8945 3.7891h-1.8945c0 0.94531 0.94531 1.8945 1.8945 2.3672-1.8945 0-3.3164 0.94531-3.7891 2.8398 1.4219 0 2.3672 0.94531 3.7891 1.4219-1.8945 0.47266-3.7891 0.94531-5.2109 1.4219 0 0.94531 0.94531 1.4219 1.8945 0.94531v1.4219h1.4219c-1.4219 1.4219 0.94531 2.3672 1.4219 0.94531 0.94531 1.4219-0.47266 2.8398 0.47266 4.2617 0.47266 0.94531 1.4219 1.4219 1.8945 1.8945 0.47266 0.94531 0.94531 3.7891 2.8398 2.3672 0 1.8945 2.3672 0.94531 2.8398 3.3164 1.4219-0.47266 1.4219-1.4219 0.47266-2.3672h1.4219c-0.47266 1.8945 1.8945 4.2617 3.7891 3.3164 1.4219-0.47266 1.8945-2.8398 3.3164-3.7891-5.2109 3.3164-4.2617-5.2109-1.4219-4.7344-1.4219 0.47266-1.8945 2.3672-0.94531 3.7891l3.3164-1.4219-0.94531 1.4219c1.4219 0 3.3164 0 3.7891 1.4219 0-0.94531 0.47266-0.94531 0.94531-0.94531-0.94531 0.47266 2.8398-0.94531 1.8945-0.47266 1.4219 0 8.5234 1.4219 8.5234 3.3164 0.94531-0.47266 1.8945-1.4219 2.8398-2.3672 0.47266 1.4219 2.3672 4.2617 2.3672 0.94531 0.94531 0.94531 2.3672 1.4219 3.3164 0.47266-0.94531 1.8945 1.4219 0.94531 1.8945 2.8398 2.3672-2.8398 3.3164 1.4219 3.7891 3.3164l1.8945-2.8398v0.94531h0.94531c0 0.94531 0.47266 1.4219 1.4219 0.94531-2.3672 1.8945 2.3672 2.8398 1.4219 0.47266 0.94531 0 1.8945 0.47266 2.3672 1.4219 1.4219-3.7891 5.6836 0.47266 2.3672 0.94531 5.6836 2.3672 8.5234 6.1562 11.367 10.891-1.4219 0.94531-2.8398 0.47266-4.2617 0.94531 1.8945 0.47266 2.3672 0.94531 2.3672 3.3164 0.47266-0.94531 0.94531-1.4219 2.3672-1.4219-0.47266 0.94531-0.47266 1.8945-0.47266 2.8398 3.3164-2.8398 5.6836 10.418 6.1562 12.312 1.4219 8.0508-0.47266 16.574-8.9961 19.418 2.8398 2.8398 8.0508 2.3672 11.367 0.94531 2.8398-1.4219 4.2617-5.6836 6.6289-6.1562 3.7891-0.94531 3.3164 3.7891 2.3672 6.1562-1.4219 3.3164-4.7344 5.6836-5.6836 9.4727 3.7891 0 8.0508-8.5234 11.84-3.7891 3.3164 4.2617-5.2109 6.1562-6.1562 9.4727 5.2109 2.3672 8.5234-3.7891 13.262-3.7891-0.94531-0.47266-1.8945-0.47266-3.3164-0.47266 0.47266-2.3672 0-6.6289 2.8398-7.1055 4.2617-0.47266 4.2617 6.1562 1.4219 7.5781 1.8945 0 1.8945-1.8945 2.8398-2.8398 1.4219-1.8945 3.3164-2.8398 5.2109-3.7891 4.7344-2.8398 8.9961-6.1562 13.734-8.9961 1.8945-0.94531 4.7344-2.3672 7.1055-2.3672 1.4219 0 3.7891 1.4219 5.6836 0.47266 3.7891-1.8945-0.47266-6.6289-0.94531-8.9961-0.94531-4.2617 3.3164-7.1055 4.7344-10.891 1.8945-4.7344 0.94531-8.9961 3.7891-13.734 2.3672-4.2617 8.9961-13.734 0.47266-15.629 0.94531-2.3672 0.94531-5.2109 1.4219-7.5781-3.3164 6.1562-9.9453 13.262-15.629 5.2109-4.2617-6.1562-0.94531-14.68 1.8945-20.836 3.7891-7.5781 10.891-10.418 16.102-16.574 2.3672-2.8398 1.8945-6.1562 2.8398-9.4727 0.94531-4.2617 4.2617-7.5781 6.1562-11.367-2.8398-0.94531-4.7344 2.3672-7.1055 2.8398-0.47266-0.94531 0-2.3672 0.47266-2.8398l-1.418-2.3711c0-2.3672 0.94531-4.2617 2.3672-5.6836 0.94531-0.94531 4.2617-2.8398 0.47266-3.7891 3.3164-1.4219 8.5234-4.7344 7.1055-9.4727-0.47266-1.4219-5.6836-5.6836-1.8945-6.6289 0 7.1055 6.1562-0.94531 2.8398-2.8398 0.94531-0.94531 1.8945-1.4219 2.8398-1.4219l-0.47266 1.4219c2.8398 0 2.8398 8.0508 6.6289 6.1562 2.3672-1.8945 0-7.1055 1.8945-8.9961 0.94531-0.94531 3.3164-1.8945 3.7891 0 0.47266 1.4219-2.3672 3.3164-0.94531 4.7344 1.8945 1.8945 10.891 0 14.68-1.4219 1.4219 0.47266 1.4219 2.8398 2.8398 3.3164 2.8398-6.1562 9.9453-7.5781 16.102-8.0508 1.4219 0 3.3164 0 4.7344-0.94531 0.94531-0.47266 2.3672-2.3672 3.3164-2.3672 1.4219 0 1.4219 1.8945 2.3672 1.8945 1.4219 0 1.8945-1.4219 1.4219-2.8398 2.3672 1.4219 2.8398 5.2109 5.6836 6.1562 3.3164 1.8945 5.2109-1.4219 8.5234-1.8945 3.7891-0.47266 7.1055 1.4219 10.418 2.3672 2.8398 0.94531 6.1562 0.94531 8.9961 2.8398 2.8398 1.8945 4.7344 4.2617 7.5781 6.1562 3.3164 1.8945 6.6289 1.8945 9.9453 2.3672 8.0508 0.94531 16.574 5.2109 24.625 2.3672-0.94531 0.47266 2.8398-0.94531 2.3672-0.94531 2.3672-1.8945 4.2617-3.7891 5.2109 0.47266 0.47266 1.4219-0.47266 2.8398 0 4.2617 0 1.4219 1.4219 2.8398 0.47266 4.7344l0.48047-1.418c-0.94531 0.94531-0.47266 2.3672 0 3.7891 2.3672-1.4219 2.8398-1.4219 5.6836-1.4219-0.47266 1.4219-1.8945 2.3672-3.3164 1.4219 0.47266 1.4219 1.4219 2.3672 0.47266 3.7891 1.4219-0.47266 2.3672-0.94531 3.3164-1.8945-0.47266 0.94531-0.94531 1.8945-1.8945 2.8398 2.8398 1.4219 4.7344-0.94531 6.6289-2.3672 2.8398-1.4219 5.6836-1.8945 8.9961-1.4219 6.6289 0.94531 12.312 4.2617 17.996 6.1562 0.47266-3.3164 3.7891-0.94531 3.7891 1.8945-1.8945-0.94531-1.8945 1.8945-0.94531 2.8398 0.94531 0.94531 3.3164 0.47266 4.2617 1.4219-0.94531-2.8398 2.3672-5.2109 4.2617-2.3672 0.94531 1.8945-0.47266 4.7344 2.3672 5.6836-0.94531-1.4219 0-1.4219 0-1.8945l0.94531-1.8945c9.4727-9.4727 24.152 17.996 16.102 20.836-0.47266-2.3672-1.8945-0.47266-2.3672 0.94531-0.94531 2.3672 0.47266 5.2109 1.4219 7.5781 1.8945 5.6836 10.891 27.941 10.418 33.152 0 4.2617-3.3164 7.5781-7.5781 5.6836v0.94531c-0.94531 0-1.8945 0-2.3672-0.47266 0 0.94531-0.47266 1.8945-1.4219 1.8945 0-2.3672-2.3672-0.94531-3.7891-0.94531-0.94531 0-4.2617 0-1.8945-1.8945-1.4219-1.4219-7.1055-0.47266-5.2109 1.8945-0.94531 0.47266-1.8945 0.94531-2.8398 0.94531v1.4219l4.2617-0.47266c0 5.2109-17.051-1.4219-18.941 3.7891-1.8945 6.6289 9.4727 6.1562 12.785 6.1562 5.6836-0.47266 15.156 0 17.051 7.1055 1.4219-0.94531 2.3672 2.3672 3.7891 2.8398l1.4219 1.4219c2.8398 3.7891 8.9961 2.3672 11.84 6.1562 1.4219 1.8945 1.8945 8.0508 6.1562 7.1055v1.8945l0.94531-1.8945c1.4219 0.94531 4.7344 2.3672 1.8945 3.7891 4.2617 2.3672 2.8398 7.5781 3.7891 11.367 0.94531 4.7344 5.2109 8.0508 9.9453 8.5234-0.94531 1.4219-3.3164 0.94531-4.2617 2.3672-1.8945 1.4219-1.4219 3.3164-0.94531 5.2109 0.47266 4.7344 0.94531 27.941-2.3672 27.469 3.3164 1.8945 0.47266 5.2109-1.8945 6.1562 8.0508 9.4727 6.1562 20.363-1.8945 29.363-3.3164 3.7891-7.5781 6.1562-5.2109 11.367 1.4219 4.2617 6.6289 10.418 0.47266 13.262-1.8945 0.94531-4.2617 0.47266-5.6836 1.8945-1.8906 0.9375-1.8906 2.832-3.3125 4.25-1.4219 1.4219-3.7891 1.4219-5.6836 2.8398-1.4219 0.94531-2.3672 2.8398-3.3164 4.7344-0.47266 1.4219-6.6289 13.734-6.6289 13.734 0 1.8945 0 3.3164-0.94531 5.2109-0.47266 0.94531-1.8945 0.94531-2.3672 2.3672-0.47266 1.4219 0.94531 2.3672 0.47266 3.7891-0.47266 1.4219-2.3672 1.4219-3.3164 2.8398-1.8945-3.3164-7.5781-1.4219-8.5234 1.4219-0.94531 2.3672 1.4219 4.2617 1.4219 6.6289 0.47266 2.3672-0.94531 4.7344-1.8945 7.1055-1.4219 2.3672-7.5781 7.1055-5.6836 9.9453 1.4219 2.8398 6.1562 1.8945 6.6289 5.6836-4.7344-0.94531-6.6289-0.94531-8.5234-5.6836-1.8945 2.3672-4.7344 2.8398-7.5781 3.7891-4.7344 2.8398-15.629 7.1055-18.469 8.9961-1.4219 0.94531-4.2617 4.2617-5.6836 2.3672-0.47266 1.8945-1.8945 1.4219-2.8398 0.47266-0.47266 1.4219-0.47266 3.3164-2.3672 3.3164-1.8945-0.47266-1.4219-2.8398-1.4219-4.2617-1.4219 0.47266-8.5234 3.3164-7.5781-0.47266-0.94531 2.3672-1.4219 3.7891-3.7891 4.2617 0.47266-3.7891-8.9961-0.94531-9.4727 0.94531-1.8945-0.94531-0.94531-3.7891-3.3164-4.2617 0 5.6836-9.4727 0.94531-4.7344 8.5234-1.8945 0-3.3164 0-4.7344-0.94531-0.94531-0.94531-0.94531-2.3672-2.3672-2.8398-2.3672-0.94531-6.1562 1.8945-5.6836 4.2617-4.7344-1.4219-8.9961-3.3164-13.734-4.7344-0.94531-0.47266-6.1562-0.47266-6.1562-1.8945-0.47266 3.7891-3.7891-1.4219-5.6836-0.94531 0.94531 1.8945-1.8945 1.8945-3.3164 1.8945-1.4219 0-2.3672-0.47266-3.7891-0.47266-0.94531 0-1.8945 1.4219-3.3164 0.94531l0.47266-1.4219c-4.7344 0-8.5234-3.3164-12.785-5.2109 0 0.94531 0 1.8945 0.47266 2.8398-1.8945-2.3672-1.8945-4.7344-1.4219-7.5781 0-0.94531 1.4219-3.3164-0.47266-2.8398-0.94531-4.7344 2.8398-7.5781 3.7891-11.84 1.8945 2.8398 4.7344-2.8398 6.1562-4.2617l-1.4141-0.94141c4.2617-1.4219 2.3672-3.7891 0.47266-6.1562 0.94531 0.94531 3.3164 0.47266 2.3672-0.94531h0.94531c-0.47266-0.47266-0.47266-1.4219-0.47266-2.3672 1.4219 0.94531 2.3672 3.7891 3.3164 0.94531 0.47266-1.8945-2.3672-3.7891-0.47266-5.6836-2.8398 0-2.3672-3.3164-2.8398-5.2109-0.94531-2.8398-3.7891-5.6836-2.3672-8.5234-1.8945 0-4.2617-3.3164-4.2617-5.2109-3.3164 1.8945-1.8945-4.2617-1.8945-5.6836-1.4219 0-1.8945 1.4219-2.8398 2.3672-0.94531-1.8945-1.4219-2.8398-3.3164-3.7891 4.7344 2.8398 8.0508-5.2109 8.9961-8.5234 0.94531-2.8398 0.47266-7.1055 0-9.9453-0.47266-0.94531 0.94531-1.4219-0.47266-1.8945-1.4219-0.47266-1.8945 1.4219-2.8398 1.8945-0.47266-0.47266 0-1.8945 0.94531-1.8945-1.8945 0.94531-2.3672-0.94531-1.4219-2.3672-1.8945 0-3.7891-4.2617-2.3672-5.6836-3.7891-0.94531-5.6836-4.7344-8.5234-7.1055-1.8945-1.4219-6.6289-4.2617-4.2617-7.1055-1.8945 1.8945-4.2617-0.94531-5.6836-2.3672-4.2617-2.8398-11.84-5.2109-13.734-6.6289-1.4219-0.94531-2.3672-3.7891-4.2617-3.7891 1.4219-5.2109-7.5781-7.5781-9.9453-10.418-2.8398 2.3672-10.891-5.2109-8.9961 1.4219 0.94531 2.8398 3.7891 4.2617 4.2617 7.1055 0.94531 2.8398-0.47266 6.1562-1.8945 8.5234-1.4219 2.3672-3.7891 4.2617-4.2617 7.1055-0.94531 2.3672-0.94531 5.6836-1.4219 8.0508 0 1.4219 1.4219 5.6836 0.47266 6.6289-1.8945 1.8945-3.7891-1.4219-4.7344-2.3672-1.4219-1.8945-2.8398-3.7891-5.2109-3.7891-2.8398 0-6.1562 2.3672-7.1055 4.7344-2.8398 5.2109 1.4219 10.418 4.2617 14.68 1.4219 2.3672 3.3164 4.7344 1.4219 7.1055-0.94531 1.4219-3.7891 1.8945-1.8945 4.2617 1.4219 1.4219 3.7891 0.94531 4.2617 3.3164 0.94531 2.3672-1.8945 6.1562-3.7891 7.1055 0-0.94531-0.47266-2.3672-1.4219-2.8398-1.4219 3.3164-8.5234-1.4219-5.2109-4.2617-1.4219-0.94531-2.8398-0.94531-4.2617-2.3672-0.94531-0.94531 0-2.8398-1.4219-3.3164-0.47266 1.8945-4.7344 0.94531-6.6289 1.8945v-2.8398c-2.3672 0.94531-0.94531 3.3164-4.2617 3.3164l0.47266 1.4219h-1.4219c0.94531 1.4219 0.47266 3.3164 1.4219 4.2617 0.94531 1.4219 2.8398 1.4219 3.7891 2.3672-3.7891 4.2617-5.2109-3.3164-7.5781-4.2617-0.94531 5.6836-7.1055 3.3164-10.418 1.8945-3.3164-0.94531-6.6289-2.3672-9.9453-2.8398s-7.5781-0.47266-9.9453-2.8398c3.3164-3.7891-5.2109-9.4727-7.5781-11.367-3.3164-2.8398-13.262-16.574-15.156-20.363-1.4219 1.8945-1.4219-0.94531-1.8945-1.8945-0.94531-2.3672-1.8945-4.2617-4.2617-5.2109-1.4219-0.47266-3.7891 0.47266-3.3164-1.8945 0.47266-1.8945 3.3164-2.8398 4.7344-2.8398-0.47266-0.94531-0.47266-1.4219 0.94531-1.8945-1.4219-2.8398-5.2109 1.4219-7.1055-0.94531-1.4219-2.3672 1.8945-3.3164 3.3164-3.7891 2.3672-0.47266 4.2617 0.47266 4.2617-2.8398 0-2.3672-1.8945-5.6836-2.8398-7.5781-1.4219-3.7891-2.3672-6.6289-2.3672-10.418 0-2.3672 0-5.2109-2.8398-4.7344-3.7891 0-8.0508 7.1055-8.5234 10.418h-2.3672c0-0.94531 0.94531-8.9961-1.8945-8.0508-1.4219 0.47266-0.94531 4.7344-0.94531 5.6836 0 1.8945 0.47266 3.7891-1.4219 4.7344-1.4219 0.94531-2.3672 0.47266-2.8398-0.94531-0.47266-1.4219 0.94531-3.7891 0.94531-5.2109 0-2.8398-0.94531-5.6836-0.94531-8.5234l0.94531 0.47266c0-2.8398 0-28.414-6.6289-23.68-0.94531-2.8398 2.3672-1.8945 3.7891-2.8398 2.8398-1.4219 2.3672-5.2109 0-7.1055 3.3164 0 8.0508-4.7344 8.5234-8.0508 0-1.8945-4.2617-5.6836-3.3164-7.1055-0.94531 0-1.8945 0-2.8398 0.47266 0-1.8945 2.8398-5.6836 5.2109-3.7891 0-1.8945 0.47266-3.3164 0.94531-5.2109 0.47266 0.47266 1.4219 0.94531 2.3672 1.4219-1.4219-1.4219-0.47266-3.7891 0-5.6836 0.47266-2.8398-0.47266-5.2109-0.47266-8.0508-0.47266-4.7344 0.94531-9.9453-2.3672-13.734-2.8398-3.3164-7.5781-3.7891-11.367-4.7344-5.6836-0.94531-11.367-3.3164-17.051-2.3672l0.47266-1.8945-0.94531-0.47266c3.7891-1.8945-0.47266-8.0508-1.8945-4.2617 0-1.4219-3.7891-3.3164-4.7344-2.8398l0.47266-1.4219c-2.8398 0.94531-3.7891-2.3672-5.2109-1.8945l0.003906-1.9062c-1.4219 0.47266-1.4219 2.8398-3.3164 2.8398s-1.8945-2.3672-3.3164-3.3164c4.2617-0.94531-7.1055-6.6289-3.3164-8.9961-2.3672 0.47266 0-2.8398-0.47266-3.3164-0.47266 0-0.94531 0-1.4219 0.47266 0.47266-0.94531 0-1.8945-1.4219-1.8945l0.94531-0.94531-0.9375 0.003906 0.47266-0.94531c-2.8398 0.94531-5.2109-3.3164-2.3672-4.2617-2.3672-0.47266-0.94531-2.3672-0.47266-3.7891-0.94531 0.47266-1.8945 0.47266-1.8945-0.94531 2.8398 0.46875 0-3.3203 0.94531-4.7422"/>
</svg>
