<?xml version="1.0" encoding="UTF-8"?>
<svg width="752pt" height="752pt" version="1.1" viewBox="0 0 752 752" xmlns="http://www.w3.org/2000/svg">
 <g>
  <path d="m590.82 374.23c-1.1094-0.17188-0.15234 1.668-1.0195 1.832-0.17969-2.125-0.68359-4.3789 0.23047-6.4258-0.35938 0.058593-0.71875 0.11328-1.0781 0.17188 0.875-1.5195-0.55859-2.0117-1.1602-3.1211-0.94531-1.7461-0.98438-3.6641-1.8516-5.4414-0.89062-1.8242-2.582-3.1406-3.5938-4.8984-1.0312-1.7891-1.5195-3.8359-2.1797-5.7773-0.17969 0.14844-0.35938 0.29297-0.53516 0.44141-0.65234-0.46484-1.8555-0.085938-1.8555-0.085938s-1.2031-0.5625-0.81641-0.11328c-1.9375-3.5938-6.2422-6.875-6.0195-11.344 0.09375-1.9453 3.1445-6.7383 1.1797-8.3164-0.050781 0.14062-0.10938 0.28906-0.16016 0.42969 0.15625-0.92969-0.40234-3.0391-1.1016-2.9492-0.93359 0.125-0.33984 1.8867-0.58203 2.4219-2.1133-1.4023-2.6289-2.6016-4.0859-4.375-0.55859-0.67578-0.97656-1.9805-2.1641-1.1875-1.0117 0.67187-0.60938 2.4688-0.28516 4-0.74219-1.0781-2.5391-1.1523-3.5938-0.074219 2.3906-3.5508-1.4688-11.113-2.1992-14.828-0.46484-2.3594-0.94141-3.8047-2.5938-5.5234-0.98047-1.0195-3.6367-2.6055-2.7812-4.3438 0.84766-1.7109 3.25-0.86328 1.4805-3.3711-0.74219-1.0547-2.9453-2.1641-3.7695-2.8047-0.49609-0.38281-6.5586-5.4258-6.7109-5.3008-0.125 0.50781-0.10938 1.0078 0.046875 1.5078-0.47656-0.51562-3.4609-6.5547-3.2148-6.6367 0.23047 1.3633-1.3828 1.2969-2.2031 0.98047-1.4141-0.55078-1.0898-2.2578-2.1641-3.1055 0.10938 0.085937-3.0195 0.17969-3.6641-0.125-3.0781-1.4297-3.3086-4.6914-3.7656-7.5547-0.37109-2.3438-2.1133-4.1875-2.2539-6.4688-0.17969-2.9375 1.3242-5.9453 1.1836-9.0898-0.039063-0.84766 0.26953-4.6562-0.48828-5.2188-1.3242-0.97656-1.1953 1.207-2.4219 0.80078-3.2617-1.0859-2.3438-10.234-2.3555-12.281-0.023438-4.9648 0.24219-11.309-3.2344-15.074-1.4453-1.5625-3.5664-5.2617-5.375-6.2383-2.3594-1.2695-3.5156 0.96094-5.8203 1.1797-8.8477 0.83203 0.56641-16.504-5.1016-18.719-0.57422 0.22266-0.74219 0.63281-0.51953 1.2344-0.57812-1.3984-0.55469-3.1602 0.71094-4.1836 0.058594 0.29297-6.2422-9.4375-1.793-7.8008-3.9688-1.3828-3.7109-4.8828-4.4297-8.3438-0.28516-1.3633-1.4688-6.5508-3.6211-4.0078 1.8945-1.8672 0.50391-2.9219-1.5352-2.3008-1.9414 0.59766-2.8086 2.7617-3.3906 4.4805-0.48438 1.4414-2.1445 11.352-2.8398 12.629-1.3203-0.50781-5.6797 1.0859-4.4375 2.9062 0.085937 0.125 1.4141-0.81641 1.6992-0.78906-0.30859-0.027344 1.1836 1.0742 1.1445 1.0508 0.62891 0.32812 2.3125 2.043 2.5469 2.0664-1.7461-0.42969-1.0781 1.3086-1.2734 2.2812-1.1445-4.5117-3.3828 1.2188-3.9531 2.8359-1.6992 4.7773-1.9453 9.582-2.082 14.625-0.31641 11.637-3.1484 26.254-11.777 34.879-8.3711 8.3672-15.996-5.7617-22.766-9.3477-2.8945-1.5352-6.0586-2.4688-8.8516-4.1992-2.6719-1.6641-4.9727-3.8984-7.6406-5.5664-1.7617-1.1016-4.2422-0.3125-5.5938-1.2031-1.1641-0.76562-0.33984-2.4102-0.82422-2.707-0.51172-0.31641-0.97656 0.25-1.0117 0.23047-3.1758-1.4141-4.5508-4.2969-7.4414-6.0352-2.6953-1.625-7.293-2.4219-5.8789-6.6055 0.88672-2.6055 3.5938-4.4609 4.7773-7.043 0.37891-0.83203 1.7148-5.3438 2.9258-5.293-0.86328-0.019532-1.6875 0.5625-2.3125-0.32031-0.625-0.88281 0.28125-2.1211 1.2344-2.1211-0.68359 0.019531-0.82812-1.1328-0.83203-1.6133-0.015625-1.4414 0.96094-0.19922 0.98047-0.20312 1.5-0.57812-0.50391 0.085938 1.0039 0.28125 0.22656-0.64453 0.29297-1.7031 1.0508-2.0234 0.17188-0.066406-0.074219 1.2891-0.082031 1.2891 0.003906 0.007813 2.4336-1.9336 2.7422-2.0312-0.83203 0.26953-0.89453 4.3867 0.73047 2.7266 0.89062-0.91016-0.46875-2.6719 0.48828-3.4062 0.35547-0.27344 2.1992 0.35156 2.2734 0.17578 0.31641-0.82422-3.1758-1.9922-2.1094-2.8164 0.3125-0.10547 1.4766 0.42969 1.8555 1.1523-0.39453-2.0938 3.1211-5.3906 4.3945-6.7812-0.47656 0.51953-3.0273-0.58203-3.2383-1.043 0.042969 0.22266 0.085938 0.44141 0.12891 0.66406-1.7383-0.62109-3.0273-5.6172-4.9258-2.1602-0.66797 1.2188 0.32031 2.4219-0.38672 3.5195-0.67578 1.0508-2.4453 0.64062-3.1172 1.7617 0.53516-0.71094 0.82031-2.8398 0.53516-3.6328-0.40234 0.10547-0.80469 0.20703-1.207 0.30859-0.375-0.11719 0.57422-2.3438 0.75781-2.3477-1.3594 0-2.3281 3.3945-3.8398 2.1328-1.2461-1.043 1.8594-2.082 1.8125-3.1289-0.46875 0.66406-3.7109 0.625-3.6133 1.6719-0.019532-0.28516-0.039063-0.56641-0.058594-0.85156-1.1172 0.58594-2.5664 0.4375-3.5078 1.3906 0.84375 0.61719-0.31641 0.97266-0.11328 1.2109-0.32812-3.3633-8.6055-3.9648-10.633-3.2188-0.35156 0.12891-0.92188-0.070312-1.2656 0.13281-0.47266 0.28516-0.21484 1.2578-0.78516 1.4023-0.30859-1.1641-0.26953-2.7031-1.3008-3.5547-0.91016-0.75391-1.8242 0.55469-2.6016-0.55469 0.60547 0.050782 0.89844-0.12891 0.875-0.55078-1.0078-0.99609-3.9336 1.5156-4.9219 1.0312 0.074218-0.42578 0.15234-0.85156 0.23047-1.2773-0.82031 0.14062-1.6445 0.14844-2.4688 0.007812 0.14063-0.20312 0.28516-0.40625 0.42188-0.60938-0.64063-0.34766-5.3164-3.2344-5.5469-4.332-0.15234 1.2461-1.5781 1.4453-2.2539 1.2578-1.2969-0.35156-1.7617-2.9023-3.3008-2.6016 0.12891 0.42969 0.019531 0.72266-0.33203 0.875-0.81641-0.40625-0.61719-3.1953-1.332-0.35938 0.003907-0.015625-1.1836-1.6484-1.4336-1.625 0.59375 0.73047 0.59375 3.207 0.3125 3.3594-0.92969 0.28906-1.0742-3.4844-2.4336-3.293-0.13281 0.35938-0.30469 0.70703-0.50781 1.0312-0.52734 0.085937-1.0391 0.046875-1.5469-0.10547 0.10937 0.20703 0.21875 0.42188 0.32812 0.62891-0.26562 0.09375-0.53125 0.1875-0.79687 0.28906 1.1875 0.042969 2.4297 1.7578 2.7695 1.9609 2.2578 1.3164 4.7969-0.59766 6.9766 0.5625 1.3828 0.82031 0.35156 2.2969 0.13281 3.5469-0.21875 1.2461 1.6133 3.2812 1.4648 3.9336-2.043 0.082031-5.1016 1.0547-5.6562 1.9492 0.023437 0.007812 0.09375-1.5312 0.046874-1.5156-2.582 0.92188-5.918 1.9805-8.6055 0.85156-0.61719-0.26172-2.7148-2.5156-3.0547-2.3633-0.26172 0.10938-0.46875 1.25-0.78516 1.4453-0.41797 0.25391-1.0117-0.24219-1.4023 0.19531-0.18359 0.20312-1.7773 2.043-0.64844 2.1328-4.5742-0.14062-1.7148 1.6133-1.8789 1.5977 0.21875 0.23047 0.82422 0.98047 0.82813 1.293-0.46094-0.41016-1.4297-0.49609-1.8086-0.89453-0.097656 0.22656-0.19531 0.44922-0.29297 0.67578-1.0391-1.2227-1.1875-4.0078-2.1836-1.0234-0.91797 2.7461 1.3203 0.78516 1.6562 2.3789-0.58594-0.18359-0.96094 0.019531-1.1172 0.60937-1.1523-4.0977-4.168 2.7852-5.5156 1.6758-2.3242 0.074218 1.2344 4.4297 1.2305 4.3945 0.24219 2.0742-5.0039 2.9258-4.5547 1.9336-0.20312 0.44922-1.793 3.5-1.0977 3.7969 0.14062-0.089844 0.28906-0.17188 0.44141-0.24219-0.93359 1.7852-1.7148 2.3711-2.9961 5.2266-1.2969-0.28516 0.46094-1.1094-0.40625-1.4688-0.4375-0.17969-1.6562 3.0547-1.6445 3.293 0.13672 1.9219 0.98047 1.3359 2.5 1.7109 0.50781 0.125 1.4961-0.39453 1.9609 0.050781 1.2266 1.1953-0.74219 0.66797-0.48437 1.832 0.50391 2.2305 0.42187 0.83984 2.5117 1.4023-0.16016 1.4141-3.2539 1.1133-3.9883 0.52734 0.88281 1.0391 1.0781 3.9023-0.003906 4.4766 1.0508-0.53125-2.75-4.3789-4.1328-3.9219 0.09375-0.03125 0.066406 1.1641 0.03125 2.2578-1.25-1.6875-8.7422-1.3555-9.6914-2.3867 0.50391 0.59375 0.60547 1.2461 0.30859 1.9609-0.074219-0.042969-0.58594-1.0977-0.79688-0.88281-0.33984 0.35547 0.28906 1.8516 0.3125 2.25-0.66406-1.5742-1.5547-1.25-1.8594 0.23047-0.19922 0.95703 0.23047 1.8203 0.66016 2.6797-0.68359-0.27344-1.6445-0.082032-2.2695 0.59766-0.58594 0.63281-0.11328 3.3867-1.7656 2.4961 0.32031 0.17187 3.5391-8.875 3.2578-10.074-0.60156-2.5625-4.1914-3.3359-5.8047-5.1094-1.1406-1.2539-2.4805-5.3594-4.8359-4.4648 0.12891 0.37891 0.25391 0.75391 0.37891 1.1328-0.77734-0.88281-1.4023-1.5391-2.1719-0.22266-0.023437-0.29688-0.046874-0.60156-0.070312-0.89844-0.57812-0.13281-1.0039 0.35547-1.7539 0.097656-0.66797-0.22656-0.91406-1.6367-1.7148-1.7109-1.7344-0.14844-1.4141 2.3711-0.33594 2.707-0.64062-0.007813-1.2852-0.015625-1.9219 0.042969 0.21875-0.097657 0.375 1.5625 0.125 1.7812-0.0625-0.17969-0.125-0.36328-0.18359-0.54297 0.039062 0.074219-0.47656 1.8008-0.46094 1.793-0.49609 0.046874-2.1992-1.3203-1.4141-1.8047-0.1875 0.089844-0.37891 0.17969-0.56641 0.26953-0.070313 0 1.0625-1.8594 1.0625-2.0234-0.85156 0.78516-2.6523 3.8633-3.9258 3.3828-1.3203-0.50391 0.003906-4.4883-2.5273-3.0977 0.28125 0.42188 0.55469 0.84375 0.83203 1.2578-0.23047-0.19922-0.50391-0.12891-0.40234 0.10547-0.042969 0.38672-0.98047-0.29688-0.94531-0.44531-0.59766 2.2812 3.5938 2.5703 0.38672 4.5508 0.74219-0.46484 0.53125 1.5742 0.52734 1.8203-0.37891-0.023437-0.76172-0.046874-1.1406-0.074218-0.058594 0.77734 0.015625 1.543 0.21875 2.2969-0.027344-0.57422-2.7617-3.7422-2.7734-3.7109-0.027344 0.058594-0.10938-1.8984-0.76172-2.0273-0.89844-0.17969-0.39453 3.4531-1.0195 3.8398 0.039062-0.023437-1.5117-0.69141-1.2578-0.67188 0.33984 0.24609 0.22266 1.3906-0.082031 1.7109-0.13281-0.36328-0.68359-0.84766-0.93359-0.70703 0.003906-0.22266 0.007812-0.44531 0.019531-0.66797-1.0977-0.28125-0.72266 1.8594-1.7773 1.7109 0.36328-0.046875 0.72266-0.09375 1.0898-0.14062 0.10938 1.0625-1.7227 0.39453-1.6992 1.4805 0.027344 1.3164 1.8984 0.24609 2.1914 1.3555-0.30469 0.066406-1.6289 0.51172-1.7227 0.87109 0.45313 0.0625 2.1211 0.97266 2.4688 0.73047 0.089844-0.19531 0.17969-0.38672 0.26953-0.58203 0.023437 1.2188 0.30469-0.24219 0.57812 0.30469 0.15234 0.4375-1.0039 0.92969-0.73438 1.3555 0.36328 0.125 0.73438 0.22266 1.1133 0.29688-0.58203-0.007812-3.6523-0.67188-3.5508 0.51953-0.78906-0.61719-0.98828-1.1562-1.3242-2.2383-0.11328 0.91016-2.3672 2.7031-2.5234 2.4336 0.28906 0.15234 0.46875 0.38281 0.53906 0.69531 0.21875-0.066406 1.8359-1.4688 1.9883-0.86719 0.35547 1.25-1.8008 0.65234-2.1094 1.4922 0.007813-0.027343 2.1641 0.69141 2.4922-0.57422 0.050781-0.003906 0.76562 1.3008 0.94141 3.1289-0.76562-0.68359-5.1602-0.75781-3.7734-2.8398-0.14062-0.30469-0.37891-0.39844-0.71484-0.28125 0.21484 0.46875-0.15625 0.91406-0.31641 1.2578 0.16016-0.46094-0.67578-0.86328-0.85156-0.85547 0.46094 0-0.34766 0.98047-0.35938 0.92188 0.30469 0.089844 0.60547 0.17969 0.91016 0.27344-1.9414 1.4648-3.9609 3.4141-3.4297 6.0898 1.6719-1.2305 0.625 1.6914 1.1758 1.5977 0.35547-0.050781 2.6719-3.5898 2.3594-2.9805-0.875 1.7227-2.1875 4.6562-2.168 5.3047-1.1328-2-1.8477-1.6094-0.80859 0.51562 0.48437 0.98828 1.2109 1.4141 1.8008 1.5898-1.3828 0.03125-2.543 0.10547-2.5625 0.23828 0.046875-0.38281 2.5039 2.8984 0.87109 2.1094-0.66016-0.31641-0.97266-0.93359-1.3086-1.7422-0.25-0.83984-3.4062-1.1133-4.2344-1.7227 0.22656 0.51953 0.47656 1.4922 0.33984 1.6094-0.33594-0.1875-0.67578-0.37891-1.0117-0.5625 0.46484 0.32812 0.050781 1.2969-0.39453 1.0859-0.46875-0.22656-0.21875-0.64844-0.625-0.96094-1.293-0.98828-0.64844-1.7539-2.2773-1.3516-0.17969-0.13672-0.35938-0.27344-0.54297-0.41016 0.21484 0.50781 0.39844 1.0195 0.55469 1.543 0.015626 0.023437 1.7344 0.046874 1.3398 0.68359-0.33203-0.003906-0.66797-0.003906-1-0.007812 0.35547 0.16016 0.70703 0.32812 1.0625 0.48828-0.62891 0.69531-2.1836 1.3164-2.8086 0.85547 0.19922 0.40625 0.070313 0.59375-0.37891 0.55469 0.27344 0.17969 1.8125 0.82812 2.1211 0.4375-0.015625 0.019532-1.3984 0.78125-1.8906 0.75 0.074219 1.7383 5.9531 2.3281 5.9531 2.3281s-0.56641 1.1172-0.94531 1.625c0.039062 0.81641 0.125 1.6211 0.24609 2.4258-0.95703 0.03125-1.3125-0.91797-1.9453-1.4102-0.042969 0.26953-0.32812 6.7188-0.96484 7.4062 0.18359-1.2188-5.1797-9.0703-5.8203-8.4961 0.98438-0.91797-0.62109-2.7422-0.84766-3.3477-0.074218-0.20703-0.55078-2.3789-0.53125-2.3477-1.6055-2.1133-3.5312 2.7656-2.043 4.3672-2.6289-0.9375-2.4219 0.066406-2.5508 2.1445 0.003906-0.11328-1.5469-0.007813-1.5234-0.46484 0.66016 0.96094-2.7578 4.9141-3.0547 6.1484-0.44141 1.8281-0.039062 4.4375 1.0781 6 0.625 0.875 1.7695 1.0977 1.7656 2.1172-0.007812 1.3555-3.8828 3.3398-4.9336 4.4102-0.76172 0.77344-2.0156 1.7539-2.4922 2.7383-0.41797 0.87109-0.066406 0.92969-0.23828 1.4727-1.7305 5.6133-4.9023 9.8555-10.199 12.824-3.6875 2.0703-7.8242 4.168-12.156 4.1211-1.7461-0.019531-3.7969-0.89844-5.3047 0.44141-0.95703 0.84766-0.65234 2.8047-2.0664 3.2383 0.46484-0.25391 0.92969-0.51172 1.3906-0.76562-0.84375 2.4688-5.1094 1.8281-7.1055 2.4805-2.9648 0.97266-5.1875 3.3008-8.0938 4.4336-2.5859 1.0078-6.4648 1.9453-9.0586 2.0742-0.53516 0.023438-0.9375-0.5625-1.4219-0.44141-0.89062 0.22656-1.8711 0.89453-2.6094 1.4141-2.0352 1.4297-2.6289 3.3711-4.0898 5.3047-1.5117 2-3.7031 3.3281-5.7578 4.6914-2.1211 1.4062-4.3477 2.7734-5.918 4.832-1.5 1.9609-1.7422 4.2383-2.793 6.3945-3.2344 6.6367-2.6094-3.2539-4.1406-4.5938-3.1367-2.7461-2.7891 10.598-2.5625 12.281 0.44922 3.3633 0.66797 6.3984-0.0625 9.7422-0.6875 3.1406-1.4727 6.0625-0.48828 9.2344 1.4492 4.6641 5.4102 8.1445 8.2969 11.949 1.4336 1.8906 5.9727 7.4727 3.2812 9.875-2.9414 2.6289-4.332-4.4883-4.4961-4.3945-1.0898 0.59375 0.86328 2.5117-0.16406 3.1914 0.18359-0.125-3.7773-7.1328-4.125-7.8359 0.78125 1.6094-0.15234 3.4141 0.53906 5.0859 0.47266 1.1445 1.7109 2.0547 2.4922 2.9727 1.2852 1.4961 3.6992 4.1992 0.60547 5.3477-0.074218-0.25391-0.61719-2.082-0.98828-1.9766 0.023437-0.29688 0.03125-2.4375-1.293-2.4219-0.19531 0.003906-1.3086-2.9805-2.25-2.6836-0.046875 0.42578 0.86328 0.91016-0.52734 0.26172 0.78516 0.33984-0.9375 2.0586 0.007813 2.4258-0.41797-0.3125-0.83203-0.62109-1.25-0.93359 4.3125 4.4453 9.1641 8.5391 11.641 14.375 2.6562 6.25 5.6055 11.703 9.3125 17.41 3.7266 5.7461 4.1172 12.395 6.9141 18.504 2.5469 5.5586 7.0273 10.129 8.1016 16.324 0.59766 3.4336 0.35156 6.9766 0.78516 10.438 0.24219 1.8984 0.84375 3.9258 0.51953 5.8477-0.57812 3.4297-1.7344 2.2656-4.2891 3.1133-2.4062 0.79688-2.3633 3.3398-1.5664 5.6328 0.86719 2.4844 2.0703 2.5352 4.3281 3.2266 2.8398 0.86719 4.6211 2.7266 7.0664 4.3086 2.4766 1.6055 5.4375 2.5625 8.4102 2.1602 0.75781-0.10547 4.3242-1.6367 4.8594-0.59766-0.80859-1.4102 0.76172-0.52734 1.3359-0.52734-0.33594 0.039062-0.99609-0.19922-0.99609 0.15234 0.066406 2.2109 6.5039 0.36328 6.4961 0.26953-0.066406-0.003906-0.13281-0.007813-0.19922-0.015625 2.3125-1.0234 6.0273-6.4062 7.2227-7.1953 2.0703-1.3672 5.1328-0.71094 6.7734-2.7227 1.1875-1.4648 1.0547-3.375 2.6602-4.6758 2.3125-1.8711 6.7383-2.2031 9.582-2.9414 3.6406-0.94531 6.0352-0.59766 9.4297-0.19922 1.25 0.14844 3.2695 0.40234 4.5508 0.29688 1.4141-0.10938 2.5703-0.98438 3.9688-1.1367 1.1836-0.13281 4.6992 1.4414 5.2852 1.1641 5.2891-0.88281 5.793-6.0039 8.3398-9.7148 2.5195-3.6719 7.0781-5.0156 10.684-7.3203 4.625-2.9648 7.8711-5.3008 13.512-5.7461 5.6133-0.44141 10.832-1.3555 16.039-3.582 4.9922-2.1367 9.8516-4.6836 15.289-5.4492 3.3516-0.47266 6.7617-0.30859 10.133-0.66016 2.4219-0.25391 4.9141-0.91797 7.3164-0.14844 2.3398 0.75391 3.7891 2.7422 5.8242 3.9648 2.0469 1.2305 3.4141 0.88672 5.6875 0.97266 1.2656 0.046875 7.1445 0.54297 6.0625 2.9414 0.48828-0.75391 2.8828 0.47266 3.5625 0.039063 0.039062-0.58594-1.3633-0.40625-0.64844-1.2969 0.42578-0.53125 1.4453 0.32812 1.8359 0.50391 0.33984 0.15234 3.7969 3.3984 3.1055 3.5469-0.26172-0.10547-1.9609-0.070313-1.3438 0.79688 0.55859 0.78516 2.9609-0.56641 3.8203 0.20703 1.1367 1.0195-0.24609 1.9375 0.082031 3.4258 0-0.83203-0.82422 2.2148-0.35937 2.7617 1.207 1.4102 2.7383 2.8711 4.875 2.7422 0.0625-0.33594 7.1172 16.082 7.1719 15.766-0.070312 0.03125 0.76563 1.2188 0.042969 1.2656-1.3125 0.03125-2.8047-4.457-3.0625-0.83984-0.050781 0.53906 4.7656 3.4766 5.3086 3.8281 0.46094 0.29297 2.2266 1.6914 2.8594 1.4453 0.64062-0.25 1.1641-2.6016 0.50391-3.1406-0.84766-0.84375-1.5859 1.4336-1.6719-0.35547-0.085937-1.7461 3.5938-2.6797 4.4375-3.8359 1.3633-1.875 1.25-3.6211 3.418-4.9102 1.0117-0.60156 3.8828-0.96484 3.6289-2.6992-0.21875 0.14062 1.6953-0.73828 2.75-1.4688 1.3789-0.95312 1.1172-2.125 1.7461-3.5078 0.875-1.9258 2.6992-2.5859 3.7031-4.3203 0.68359-1.1797 0.60547-2.4023 0.51953-3.6523 0.3125 1.0977 1.1562 2.0898 1.5352 3.1445 0.44922 0.82812 0.62109 1.7109 0.51953 2.6484-1.9492 1.5977-2.0664 5.6172-3.207 8.0273-1.1523 2.4258-2.7617 4.4297-2.9062 7.1992-0.097656 1.9219 0.60938 3.3984-0.77344 5.0586-1.1602 1.3867-3.3945 1.3242-4.5469 2.668-3.5312 4.125 4.7461 1.6875 6.2266 0.94531 4.9688-2.4766 1.7383-8.2422 5.375-11.438-0.53125 0.46094 2.168 6.2305 3.5859 7.9922-0.75391 1.5234-0.007812 3.3008-0.54297 4.875-0.42188 1.2266-2.2461 2.0586-2.4258 3.2422-0.45312 2.9727 3.5391 1.582 5.3086 1.7539 5.9609 0.57422 9.3672 7.668 9.2383 13.066-0.070313 2.9609-1.4219 4.3945-0.4375 7.4023 0.89453 2.7422 2.4453 5.3438 4.5625 7.3008 0.96484 0.89844 10.859 6.2031 9.7266 7.0664 7.0547-5.625 13.27 6.3633 20.008 6.1328 2.8125-0.09375 5.8203-2.7695 8.3242-4.0352 2.1328-1.0781 4.2227-2.3359 0.38281-2.4688 2.3242 0.082031 2.9297-4.418 5.5117-3.0547 1.2773 0.67578 1.4219 2.9023 0.66406 3.9844-1.0703 1.5234-2.4727 0.89844-4.0547 0.89844 1.7383 0.058594 1.4648 2.6445 3.582 2.2109 1.0977-0.22656 1.2422-2.1016 2.7617-1.957 2.207 0.20703 0.57812 2.0938-1.0781 2.7422 3.0078 0.13281 6.4062 4.6797 8.3398 6.1328 0.53516 0.40234 3.5039 3.4102 3.2188 0.26953-0.11719-1.2969-1.6016-0.84766-2.1719-1.6094 0.49609 0.66016 6.9414-2.293 7.8711-2.8281 4.2305-2.4336 6.6641-5.9961 11.934-6.0938 6.2383-0.11719 16.812 3.2734 17.73-6.0742-0.42578-0.35547-0.6875-0.80469-0.78125-1.3516 0.55469-4.3086 2.5703-10.035 4.5625-13.895 1.0312-2.0078 2.2734-2.9844 3.8086-4.5508 1.4219-1.4531 2.0039-3.1016 3.1523-4.7422 0.050782-0.070312 0.69531 1.0859 0.59375 1.0938 1.0664-0.089844 1.9844-6.125 2.2539-7.0391 0.42188-1.4336 0.81641-3.5898 2.0039-4.6094 1.668-1.4297 2.9375-1.4883 4.082-3.707 2.3438-4.5508 4.0625-7.1797 8.1445-10.523 4.1172-3.3711 7.2109-6.9297 9.7031-11.645 4.957-9.3828 6.6836-20.023 11.32-29.48 1.1211-2.2891 2.5898-4.4102 2.8945-6.9961 0.26172-2.2148-0.83984-7.8438-0.77344-6.6719-2.0078-1.8242-1.7109-6.3945-1.5859-8.8477 0.09375-1.8906 0.73438-3.5742 0.91016-5.4453 0.15625-1.6953 0.26172-4.3906 0.066406-4.0586-0.625-0.26953 1.8477-4.7773 1.9141-5.4336 0.035156-0.60547 0.55469-2.0312-0.46094-2.1875z"/>
  <path d="m517 545.95c-0.15625-0.48438-1.2969-1.8594-1.7305-1.9688-1.4766-0.37891-0.51953 0.81641-1.832 0.96094-0.78125 0.089844-1.7617-1.1328-2.1211-1.0781-0.23047 0.046875-0.44141 1.0391-0.86719 1.1641-0.26953 0.59766-0.71094 0.92969-1.3359 0.99609-0.19922-0.28516-0.42969-0.53125-0.70703-0.73828-0.95312 0.13672-2.4922 0.046875-3.3008 0.35156-1.4961 0.55859-1.5 0.03125-1.3633 1.5586 0.039063 0.42578 2.1797 2.5898 1.9102 3.1914-0.40625 0.14844-2.0234-2.8906-2.0664-2.9297-1.5352-1.6992-2.1602-0.29297-4.6641-0.73438-2.3477-0.41797-4.5195-2.3281-6.25-3.3984-0.33594-0.20703-1.3398-0.78906-1.4688-0.89844-0.67188-0.56641-1.1445-1.4648-1.6445-1.8086 0.75391 0.51953-1.6562 0.45312-1.6211 0.46094-0.089844-0.007813-3.3867-1.8047-3.0742-1.9102-0.48828 0.16406-1.3242 3.3086-1.4648 4.1211 0.58594 1.0938 0.4375 3.6211 0.78516 4.8438 0.41016 1.4492 1.2031 3.418 2.0586 4.9805 0.44531 0.80859 1.0977 1.3828 1.3438 2.3281 0.09375 0.35547-0.019531 1.8359 0.074219 1.9922 0.13281 0.21484 1.207 0.71094 1.3828 1.0859 2.1211 4.5234-1.8438-1.1133-2.0508-1.0078 0.375 1.6484 0.51172 4.1875 0.77344 5.2578 0.15234 0.625 1.5195 3.7891 1.1016 4.2578 2.1367-0.79688 1.7891 4.3633 3.5508 4.1484-0.35937 0.03125-0.03125-1.1523 0.023438-1.3203 0.015625 0.003906 0.54297 0.74219 0.48828 0.73047-0.91406-0.20313 1.1133 1.1328 0.97266 0.97266 0.11328 0.125 1.625-0.55078 1.1797 0.67188-1.0664 0.19531-1.6094-1.0938-2.707-0.17969 0.91016 0.57422 0.31641 1.7656 0.98047 2.168 0.45313 0.27344 0.86328-1.625 1.2109-0.15234 1.4648-1.3516 5.8359 3.207 6.207 0.88281-0.023437 0.16406 1-0.64062 1.0703-0.69922 0.11719-0.09375-0.53516-0.65234-0.55469-0.59766 0.60938-0.10938 1.7812-0.54297 0.625-1.2031 0.09375-0.39844 0.75391 0.070312 0.88672-0.070313 0.48828-0.57422-1.6055-1.2227-0.50781-2.3164-0.44922 0.48828 0.35938 0.88672 0.35156 1.3086 0.19922-0.11328 0.31641-0.28516 0.37109-0.51172-0.32031 0.46484 0.67188 1.6016 1.3398 1.0547 0.53125-0.4375 0.28906-2.1172 0.55078-2.5195 0.019531-0.023437 0.34766 0.29688 0.49219 0.20703 1.4141-0.88672-0.94141-2.918-0.55859-3.4961 1.0312 0.28125 0.91797 1.8047 1.4531 2.3281 0.058594 0.066406 0.54297-0.73828 0.54297 0.007812 0 0.09375-0.13672 1.0742-0.42969 0.92969-0.09375-0.17578-0.17578-0.35547-0.23828-0.54297 0.007813 0.20703-0.039062 0.29297-0.14062 0.25391-0.35156 0.53906 0.75391 0.58203 0.95312 0.28516 0.027344-0.046876 0.51172-1.5234 0.1875-1.3555 1.1562-0.60547 1.457 0.72266 2.6367 0.42969 2.0078-0.49219 1.0117-3.4414 1.3438-3.9883 0.25-0.41016 0.76562 0.1875 1.0781-0.76172 0.25-0.75781 0.11328-1.8008 0.375-2.5 0.24609-0.67188 2.5156-2.707 2.4922-2.6328-0.55078 1.5117-0.050782 0.59766 0.1875 2.0977 0.10547 0.62891-0.88672 1.7031 0.03125 1.9102-0.21875-0.042968 1.4961-13.617 1.5352-14.379 0.085938-1.3945 0.65234-0.68359 0.15234-2.2383z"/>
 </g>
</svg>
