<?xml version="1.0" encoding="UTF-8"?>
<svg width="752pt" height="752pt" version="1.1" viewBox="0 0 752 752" xmlns="http://www.w3.org/2000/svg">
 <path d="m376.75 368.63-2.6523 5.4922-4.9531-4.1289-16.797 5.0039-7.6523 12.359-18.93 2.8594-0.03125 0.0625-5.4023 1.3789-7.668-26.867 3.5-26.434-3.1367-10.863h4.7227l17.285-7.3555 2.3203 14.219 25.555 8.2109 2.125 13.75 9.9258 1.0703zm-99.473 141.25 1.2656 2.6836h1.5898l0.33203-0.49219-1.0977-1.1289 0.33203-1.1211-0.98828-0.60156zm2.6914-4.3984-0.55078-0.32031-0.55078 2.1367 1.0977 0.60938c0.003906 0 0.003906-2.4258 0.003906-2.4258zm-6.4805 31.352-0.66016-1.207 0.875-1.5898-0.60547-1.7578-2.1367 3.0703 1.0664 0.98828-0.52734 1.4336 0.28125 3.0156 1.6992-2.4688zm-0.87891-5.2656-1.0977-0.82812-0.44141 1.0938zm5.3164-180.91 11.906 5.2812 8.1445 4.8359 6.7148 5.7305 0.29688 5.375 2.3164-1.9766 2.9961-5.3828 3.4375-25.961-3.1836-11.035h-7.3125v-6.7266l-11.887-3.457-6.8672-13.215 10.133-15.629 8.9961-1.8906 0.011718-7.6836h-12.312l-11.414-12.312-2.082 9.0938-12.836 5.8242-7.1523 10.988h-15.469l0.83203 1.1172-1.7891 1.4297 6.5352 4.2969 3.4922 6.8047 3.7617 4.0273 7.4297 15.93 7.6094 11.547 0.80469 5.6406zm-5.3164 168.77h-1.4258l-0.76562 1.2656 1.9219 0.49219zm1.375 9.8828 0.21875 1.2656 0.82422-0.93359-0.82422-3.8398-2.9062 0.88281-0.66016 3.3477h1.9766zm103.57-294.71 4.9961 4.0625 3.6523 7.6562 1.9023-0.66797 2.582-3.9297 8.168-4.8008-3.2852-6.707 5.3242-9.8984-4.1641-1.6133-11.48 1.1289c-0.6875 1.6211-1.875 4.5234-2.7383 6.6094zm-101.92 312.78 1.293 1.2031v1.2656l1.0703 0.21875 0.21875-1.0977-1.2305-1.582-1.3516-0.28516zm88.762-318.86v0.046875l4.2617 7.1055 3.5508 15.535 11.738-4.1055-3.418-7.1758-6.0938-4.7578 5.9531-9.7891c0.14063-0.37109 1.2852-3.1445 2.1719-5.2852l-5.2773-4.0742-2.5938-0.26953-0.26953-3.3984-2.6836-1.7891-2.5938 1.2539-2.7852-3.9961-8.6875 16.629zm-101.02 51.148 12.406-5.6367 2.2266-9.8984-12.172-2.082-8.5234-3.5977-7.0469-3.9961-3.0391 0.94141 0.53516 4.4766-1.7891 2.5039-0.53516 2.1445-1.5195 1.5195-0.80469 7.1602 3.3086 2.7734 2.3242-2.1484-0.53516 5.8203-2.4141 0.625-5.6406 6.0898 0.44531 3.7617 0.003907 0.003907h15.949zm95.367-87.789-2.3594 0.78906-2.0977 4.8438 4.4531-0.51953zm43.195 45.961-9.7969 5.7617-0.94531 1.5312 14.832-2.0781 10.875-14.895-3.2539-0.69531-6.4453-5.6406-3.9453-0.92969-5.0234 9.3594zm-143.58 18.48 8.2422 3.457 11.98 2.0352h0.09375l13.688 14.727h13.641v9.5469l1.9414-0.40625 2.3203-17.758-0.56641-15.484 15.262-2.4375-5.2344-16.191v-7.3867l-8.7383-0.097657-18.82-8.1172-1.9336-13.785 7.8477-6.9883 6.4727-4.4414-4.6094 1.0977-2.1484 1.8789-2.7734-4.1211 3.7617-1.8789 0.09375-3.4062-5.9062 2.7734-4.4766 3.3984-6.8906 0.80469-0.80469 3.582-0.98438-2.4141-3.0469 1.3398-3.0469 4.0312 0.35938 3.9414-2.7734 1.3398-3.582 4.2969-0.26562 3.7578-3.9414 8.8594-0.44922 0.89453 1.2539 3.9414-1.2539 1.2539 0.89453 8.5898 1.5195 1.4297-5.3711 7.1602-4.1172 1.3438 0.17969 2.957h-2.0586l0.89453 3.1367-1.6758 0.51953zm49.281-65.453-0.52734-2.7578-2.5938 0.41797 1.2578 3.6172zm-14.887 14.473 1.5742 11.215 17.371 7.4961h10.391v9.5664l5.5156 16.879 2.875 5.5898 13.449-7.7656-5.1602-12.785s10.797-0.33203 12.359-0.046875c1.1836-0.28516 6.2031-2.8906 10.988-5.5898l-7.5781-4.5938 10.094-19.352-7.2109 0.93359 1.3438-3.3984 1.7891-2.1484-2.8633-1.1641-10.027-3.2266 3.6719-2.6836-9.9375 1.0742-5.8203 3.7539-4.2969-0.71484-2.6836-2.5938-12.176 1.5195-0.80469-4.1172-5.3906-1.2266-10.688 7.3203zm75.855 167.28-14.715 4.3867-6.8477 11.059 30.648 18.977-6.0938 8.4727 8.2266 1.6914 8.7031-4.2383 1.8477-6.7812h0.125l2.8789-6.7734-9.5938-9.7891h-8.8398l-1.5586-13.023zm-67.582 180.77 0.050781-1.7617-13.527-1.7422-6.9531-14.562 5.9453-5.6875 9.8164-57.379 7.5586-17.172-2.457-14.312 11.98-24.441 1.4336-12.414 5.8047-4.8125 3.4102-5.957-5.4141 1.3828-7.5742-26.586-2.0898 3.5977-3.8516 3.2852 0.42969 7.7695-3.0469 14.77-1.6992 15.66-2.957 10.027-1.3438 2.6836 0.44531 5.9102-1.8789 2.7734 0.44531 9.4844-2.957 10.742-7.25 14.598-2.6836 1.875 0.35938 6.4453 1.6992 4.2891-2.4141 2.8633-1.2539 2.0664-0.44531 5.0977 0.80469 2.3242-2.5039 1.8867-0.17969 4.2891-0.98437 2.8633 2.4141 0.35938 1.6094-2.7734-0.35938-3.2305 1.6094-3.0469 2.5938-1.25 1.6094 1.4297-4.1211 12.98 1.0742 1.875-4.207 8.5-2.582-3.125-5.1914 3.1289 2.4141 2.4219 3.3984 0.98047-1.2539 1.6094-1.9688 2.4219 1.8789 4.4688-2.8633 1.6992 1.0742 3.6719 1.4297 1.7891-0.89453 2.8594 2.5039 2.3242 1.1641 4.1211-0.17969 3.5977 2.2383 1.4336 0.44922 3.1367 3.8516-1.0781 1.2539 3.0508 2.3242-0.44922 2.7734 4.2969 4.1172 0.80469h5.9062l4.8359 1.5156 6.5352-2.3242-5.4609-1.7891zm42.855-9.3047-1.8125 1.8789-3.0195 2.0078v1.2109l2.2812-0.26953 6.4453-2.8945-0.47266-1.4727zm-3.9609 0h-2.957l-1.4102 3.4258h-2.1484l2.1484 1.0781 2.8164-1.3398 2.957-2.2812zm-24.91 17.113 2.0117-0.57422 2.0117-0.5625h-2.6836zm-37.566-16.617h-0.76562v0.86328h0.76562zm233.13-263.49-2.2383-6.3555-7.4258 0.35937-7.4258-4.6562-5.6406-4.1211-5.9961-2.5039-10.027 1.4297-7.8789-2.2383-3.6641 2.0586-3.3984 0.53906-0.17969-5.0156-3.582-1.7891-10.832-3.2266-5.7305 0.89453-2.4141 4.1211-4.4766 3.7617-3.7617-1.1602 5.6367-1.4336 2.3281-4.1211 0.71094-4.6562-13.07 0.98438-0.89453 6.1758-1.2539-1.1641-4.1211 3.3984-3.9414 1.0742 4.0352-2.957 0.71094-3.8516 9.6641-10.477v-4.2969l-4.2969-0.71484-3.5742-10.242-10.492 14.379-18.328 2.5586-18.562 6.4414-4.0742-17.902-2.793-4.5469c-11.461 6.4414-12.406 6.1094-12.93 5.9688-0.61719-0.1875-4.5469-0.14062-8.4297 0l4.6875 11.508-17.379 10.086-3.6953-7.1523-13.688 2.2266 0.47266 13.59-2.5586 19.605-14.02 2.8906-8.8086 13.688 5.7773 11.082 12.598 3.6484v6.1562l11.887-0.015625 19.375-8.3633 2.582 15.781 25.57 8.2148 2.0742 13.398 9.918 1.0703 2.1914 13.762-3.4922 7.2188 1.3203 11.059h7.7344l11.402 11.637-3.1055 7.293h2.8906v9.9688l-19.57 15.305c3.1836 2.6094 12.414 10.16 19.289 15.602l3.625-4.7656 4.1211-6.1758 3.582-4.5703 2.5938 0.62891-3.4844 4.207-4.8359 4.4766 5.1016-3.2266 5.3711-5.9023 3.582-5.5508 6.7148-5.0156 1.9688-7.0703 1.2578-8.9492 6.2617-5.7305 10.656-6.3594 6.5312-2.2344 1.793-2.7734 6.8906-1.0781 6.7148-0.26953 1.1641-3.4844 4.8359-2.0664 0.44922-4.4766 5.4609-7.6953 2.6836-3.0469 1.2539-6.8047 3.0508-4.207 1.4258-6.8906 1.2578-3.3086 0.71094-16.02 1.793-4.9258 2.1445-0.089844 0.71484 1.2539 4.9219-7.3398 1.3438-4.3867 4.7461-5.1016 6.9844-7.4297 2.7734-8.9492zm-141.61 183.95-0.80469-2.4141 2.4141-2.5-3.2188-2.4219-3.6719-1.25 5.8594-22.629 24.055-18.816v-6.4492h-1.4062l-1.6562 6.0742-10.395 5.0547-12.586-2.6016 6.7383-9.3711-29.129-18.035-17.91 2.6992-4.8867 8.3984-5.2383 4.3398-1.457 12.051-11.734 23.945 2.4492 14.258-7.7852 17.688-9.8516 57.75-5.2617 5.0352 5.6562 11.859 7.5547 0.97656 2.1914-1.0117 2.7734 1.0742-2.3242-4.0312 0.089844-2.4141-1.0742-0.17969 2.8633-3.9414 4.3867-1.0742 1.3438-3.7656 3.4922-3.1367 3.9414-2.3203 2.6836-3.9414-0.011718-1.793-4.9258-0.44531-2.5039-3.3086 0.089844-2.8633 4.8359-3.9414 5.9961-1.5156 1.5195-2.9609 0.35938-2.9492 4.207-2.7734-1.9688-1.1641 1.9688-1.5195 0.35938-1.5234-2.5039-0.53125v-5.9102l2.5039-1.1641 5.1016 1.7852 4.6562 0.18359 2.7656-1.8867-0.89453-3.0469 2.4141-3.8516-0.89453-3.3047 5.9961 0.80469 13.875-2.0664 5.9062-3.2188 5.8203-7.3438-0.35938-1.9688zm2.6641-29.836-5.1094 19.137 1.8516 1.4805h2.5586l13.695 1.4414 8.1445-6.3594 1.4805-1.9375c-7.2188-5.7227-17.055-13.766-19.762-15.996zm-42.738 61.809-1.2773 2.3164 0.88281 1.875 2.0469-0.55469 1.1211-3.2578-0.81641-0.88281zm-26.906 68.254 1.2617 0.16406 0.98828-0.59766-0.98828-0.59766zm-22.621-11.527 0.98828-0.44531v-1.4805h-2.1406l-1.6992-0.66016-1.4883-0.75781-0.55078-0.5625 1.1523 2.3594 2.582 0.88281-0.21875 0.99609 1.6484 2.1406 1.207 0.60547-0.49219-1.9805zm-4.832-8.5625-1.3164 0.22266v1.9688l1.8125-0.98047zm-0.82422-2.7461 1.8125-0.28125 0.27344-0.98828-1.5391-0.82422zm-1.3672 0.60156-0.28125 1.543 1.1523-0.76562zm9.4961 14.273 1.6484-0.49219v-1.6484l-1.6484 0.44141zm16.359 5.4883-0.55078-0.66016-1.9766-0.28125h-2.4727l0.27344 0.93359 2.4727 1.4297 0.33203-1.4297 0.93359 1.1562 3.1289 0.28906-0.60547-1.1836zm-9.9922-3.8398-0.66016-1.6445-2.9062-1.3203v1.3203l1.3164 0.65234h1.043v0.88672l-1.6484 0.21484 0.71484 1.0078h3.5156l1.043 1.1367h-1.6992l0.93359 0.82812 1.9219 0.38281-1.0977-2.6914z"/>
</svg>
